<svg width="200" height="300" viewBox="0 0 200 300" xmlns="http://www.w3.org/2000/svg">
  <!-- Rick Neutral Sprite -->
  <defs>
    <linearGradient id="rickHair" x1="0%" y1="0%" x2="100%" y2="100%">
      <stop offset="0%" style="stop-color:#8B9DC3;stop-opacity:1" />
      <stop offset="100%" style="stop-color:#6B7A99;stop-opacity:1" />
    </linearGradient>
  </defs>
  
  <!-- Body -->
  <rect x="60" y="180" width="80" height="120" fill="#FFFFFF" stroke="#000" stroke-width="2"/>
  
  <!-- Lab Coat -->
  <rect x="50" y="170" width="100" height="130" fill="#F0F0F0" stroke="#000" stroke-width="2"/>
  
  <!-- Head -->
  <circle cx="100" cy="100" r="50" fill="#FDBCB4" stroke="#000" stroke-width="2"/>
  
  <!-- Hair -->
  <path d="M 60 80 Q 100 40 140 80 Q 120 60 100 65 Q 80 60 60 80" fill="url(#rickHair)" stroke="#000" stroke-width="2"/>
  
  <!-- Eyes -->
  <circle cx="85" cy="90" r="8" fill="#FFFFFF" stroke="#000" stroke-width="1"/>
  <circle cx="115" cy="90" r="8" fill="#FFFFFF" stroke="#000" stroke-width="1"/>
  <circle cx="85" cy="90" r="4" fill="#000"/>
  <circle cx="115" cy="90" r="4" fill="#000"/>
  
  <!-- Unibrow -->
  <path d="M 75 82 Q 100 78 125 82" stroke="#8B9DC3" stroke-width="3" fill="none"/>
  
  <!-- Mouth (neutral) -->
  <path d="M 90 115 Q 100 120 110 115" stroke="#000" stroke-width="2" fill="none"/>
  
  <!-- Arms -->
  <rect x="30" y="180" width="20" height="60" fill="#FDBCB4" stroke="#000" stroke-width="2"/>
  <rect x="150" y="180" width="20" height="60" fill="#FDBCB4" stroke="#000" stroke-width="2"/>
  
  <!-- Legs -->
  <rect x="70" y="280" width="25" height="20" fill="#654321" stroke="#000" stroke-width="2"/>
  <rect x="105" y="280" width="25" height="20" fill="#654321" stroke="#000" stroke-width="2"/>
</svg>